:SAMPLES-PER-SECOND 30
:FULLY-SPECIFIED
:DEGREES
1099
root  -45.4925 40.5542 29.779 176.019 59.6445 173.518
RightUpLeg  4.24399 -9.46781 -3.2067
RightLeg  10.3245 -7.24345 4.52283
RightFoot  -17.2987 -0.0266126 1.73719
RightToes  0.00048216 0.542163 -0.142577
Spine  14.2935 2.59117 6.85217
Spine1  5.98243 4.73327 -5.10419
HEad  -7.3636 -12.5707 1.40696
LeftShoulder1  7.75898 -11.758 -44.2656
LeftArm  -8.89306 27.0807 -31.0809
LeftForeArm  33.694 -32.942 -5.3637
LeftHand  -0.25398 0.0180481 5.50724
RightShoulder  5.31356 9.32277 35.4575
RightArm  6.60759 -23.0874 32.2781
RightForeArm  121.641 78.7944 118.014
RightHand  -2.13016 6.4624 -21.0411
LeftUpLeg  -20.9102 19.2976 -9.17859
LeftLeg  18.0503 5.7932 2.30915
LeftFoot  -5.94001 0.190473 -3.28383
LeftToes  1.06246e-005 4.65856e-005 -8.18502e-006
1100
root  -44.1986 40.391 29.6877 174.962 62.1916 173.165
RightUpLeg  7.32982 -8.95042 -2.619
RightLeg  9.14573 -5.41177 4.46048
RightFoot  -17.8184 -0.098139 0.398753
RightToes  0.00048216 0.542163 -0.142577
Spine  14.1839 2.891 7.01012
Spine1  6.83865 5.28174 -5.66952
HEad  -7.67436 -11.179 1.02937
LeftShoulder1  7.88036 -11.922 -44.4916
LeftArm  -8.60848 27.6514 -30.8289
LeftForeArm  32.8261 -31.1542 -4.98443
LeftHand  -0.25398 0.0180481 5.50724
RightShoulder  5.34238 9.21785 36.013
RightArm  6.35103 -21.3402 32.4284
RightForeArm  119.968 79.0479 115.689
RightHand  -2.07012 6.37177 -20.614
LeftUpLeg  -20.4881 16.037 -9.73178
LeftLeg  11.8034 9.09107 -0.311424
LeftFoot  -5.3871 0.164975 -2.56894
LeftToes  1.06246e-005 4.65856e-005 -8.18502e-006
1101
root  -42.8496 40.1805 29.5775 173.837 65.0711 172.462
RightUpLeg  9.93164 -8.5406 -2.27929
RightLeg  8.6868 -3.61536 4.28351
RightFoot  -18.4604 -0.199037 -1.18497
RightToes  0.00048216 0.542163 -0.142577
Spine  14.0832 3.31914 6.95047
Spine1  7.25507 5.9787 -6.37076
HEad  -7.65285 -9.53175 0.828381
LeftShoulder1  7.96111 -12.0307 -44.6402
LeftArm  -8.22703 28.495 -30.3253
LeftForeArm  31.929 -29.3163 -4.6095
LeftHand  -0.25398 0.0180481 5.50724
RightShoulder  5.41057 9.19006 36.6259
RightArm  6.13557 -19.7393 32.9045
RightForeArm  117.805 79.4041 112.165
RightHand  -1.8757 5.79217 -19.6761
LeftUpLeg  -19.4352 3.8316 -6.0295
LeftLeg  4.66046 22.6086 -4.79166
LeftFoot  -4.42233 0.157818 -2.15116
LeftToes  1.06246e-005 4.65856e-005 -8.18502e-006
1102
root  -41.4134 39.8977 29.436 172.831 67.7914 171.71
RightUpLeg  12.1159 -8.4833 -2.2778
RightLeg  9.1604 -1.77701 4.28152
RightFoot  -19.3553 -0.285272 -2.21186
RightToes  0.00048216 0.542163 -0.142577
Spine  13.8966 3.74951 6.69949
Spine1  7.13006 6.55703 -6.92922
HEad  -7.10766 -7.80045 0.575251
LeftShoulder1  7.95641 -12.0215 -44.6402
LeftArm  -7.82785 29.7074 -29.6275
LeftForeArm  31.526 -27.7218 -4.27544
LeftHand  -0.25398 0.0180481 5.50724
RightShoulder  5.47937 9.20677 37.0973
RightArm  5.9045 -18.8116 33.8592
RightForeArm  117.384 79.6349 110.043
RightHand  -1.7924 5.63702 -19.0892
LeftUpLeg  -19.6038 -1.48302 -4.84017
LeftLeg  -1.15978 28.4573 -7.61136
LeftFoot  -4.20901 0.235887 -3.40336
LeftToes  1.06246e-005 4.65856e-005 -8.18502e-006
1103
root  -39.8475 39.5666 29.2462 171.96 70.0261 171.226
RightUpLeg  14.3953 -8.7148 -2.53702
RightLeg  10.3393 0.364762 4.45312
RightFoot  -20.0522 -0.30417 -2.21593
RightToes  0.00048216 0.542163 -0.142577
Spine  13.4108 4.03342 6.50165
Spine1  7.20204 6.97307 -7.45447
HEad  -6.53626 -6.33058 0.329075
LeftShoulder1  7.86697 -11.9545 -44.3143
LeftArm  -7.31104 31.0612 -28.8817
LeftForeArm  31.378 -26.5516 -4.02907
LeftHand  -0.25398 0.0180481 5.50724
RightShoulder  5.51008 9.19519 37.3693
RightArm  5.63241 -18.5437 35.2904
RightForeArm  119.31 79.6607 110.642
RightHand  -1.91863 6.32399 -19.2403
LeftUpLeg  -19.9297 -1.87816 -5.25999
LeftLeg  -2.66907 27.659 -8.14815
LeftFoot  -4.67369 0.292122 -4.47493
LeftToes  1.06246e-005 4.65856e-005 -8.18502e-006
1104
root  -38.1459 39.2452 29.0132 170.328 71.9028 170.165
RightUpLeg  17.0139 -9.59293 -3.46518
RightLeg  12.0764 3.42379 4.60425
RightFoot  -20.122 -0.269728 -1.74564
RightToes  0.00048216 0.542163 -0.142577
Spine  12.733 4.20885 6.07045
Spine1  7.75882 7.35258 -8.05365
HEad  -6.37603 -5.08494 0.36508
LeftShoulder1  7.72461 -11.8525 -43.7752
LeftArm  -6.72393 32.2765 -28.0522
LeftForeArm  30.8942 -25.5346 -3.83112
LeftHand  -0.25398 0.0180481 5.50724
RightShoulder  5.52344 9.17621 37.5338
RightArm  5.52404 -18.7639 36.8623
RightForeArm  122.441 79.4863 113.364
RightHand  -2.08645 7.11754 -19.6007
LeftUpLeg  -20.4315 -1.87014 -6.1341
LeftLeg  0.381876 25.1235 -6.80342
LeftFoot  -3.87488 0.161002 -2.25244
LeftToes  1.06246e-005 4.65856e-005 -8.18502e-006
1105
root  -36.3412 38.9569 28.7695 166.778 73.4814 167.171
RightUpLeg  19.4559 -11.9553 -5.86132
RightLeg  15.0342 8.25085 4.87285
RightFoot  -19.5981 -0.191459 -0.863261
RightToes  0.00048216 0.542163 -0.142577
Spine  12.1412 4.45396 4.57606
Spine1  8.07997 7.57614 -8.26924
HEad  -6.332 -3.79361 0.813783
LeftShoulder1  7.62059 -11.7378 -43.496
LeftArm  -6.21011 33.1431 -26.8559
LeftForeArm  29.8443 -23.887 -3.57319
LeftHand  -0.25398 0.0180481 5.50724
RightShoulder  5.55702 9.19223 37.736
RightArm  5.95166 -19.3451 38.0773
RightForeArm  124.471 79.27 115.773
RightHand  -2.15057 7.35903 -19.8158
LeftUpLeg  -21.3288 1.30586 -8.93736
LeftLeg  6.78596 19.1223 -3.39097
LeftFoot  -1.02391 -0.285852 3.13177
LeftToes  1.06246e-005 4.65856e-005 -8.18502e-006
1106
root  -34.5126 38.7336 28.5406 161.816 74.5005 162.511
RightUpLeg  20.3521 -14.7093 -9.15107
RightLeg  20.4665 13.7015 5.90648
RightFoot  -17.528 -0.0376689 1.53745
RightToes  0.00048216 0.542163 -0.142577
Spine  11.6801 4.75212 1.94237
Spine1  7.59322 7.42357 -7.76706
HEad  -5.8132 -2.50847 1.4985
LeftShoulder1  7.64452 -11.7173 -43.7014
LeftArm  -6.27076 33.3461 -25.2643
LeftForeArm  28.8483 -20.7911 -3.47495
LeftHand  -0.25398 0.0180481 5.50724
RightShoulder  5.61424 9.23751 38.0187
RightArm  7.00447 -20.0921 38.7101
RightForeArm  123.461 79.297 115.191
RightHand  -2.13256 7.15341 -19.9617
LeftUpLeg  -22.4408 8.40509 -13.4763
LeftLeg  13.5646 9.84252 0.6829
LeftFoot  1.57185 -0.86896 7.67074
LeftToes  1.06246e-005 4.65856e-005 -8.18502e-006
